<?xml version="1.0" standalone="no"?>
<!DOCTYPE svg PUBLIC "-//W3C//DTD SVG 20010904//EN"
 "http://www.w3.org/TR/2001/REC-SVG-20010904/DTD/svg10.dtd">
<svg version="1.0" xmlns="http://www.w3.org/2000/svg"
 width="2000.000000pt" height="2000.000000pt" viewBox="0 0 2000.000000 2000.000000"
 preserveAspectRatio="xMidYMid meet">
<metadata>
Created by potrace 1.16, written by Peter Selinger 2001-2019
</metadata>
<g transform="translate(0.000000,2000.000000) scale(0.100000,-0.100000)"
fill="#000000" stroke="none">
<path d="M0 10000 l0 -10000 10000 0 10000 0 0 10000 0 10000 -10000 0 -10000
0 0 -10000z m11471 3449 c27 -28 49 -58 49 -66 0 -8 15 -20 33 -28 35 -14 89
-89 101 -137 5 -21 13 -28 30 -28 29 0 49 -24 65 -77 7 -27 23 -51 41 -65 16
-12 39 -42 51 -67 11 -25 32 -62 46 -83 13 -20 31 -62 39 -95 9 -32 26 -74 39
-93 13 -19 26 -55 30 -80 4 -25 20 -97 36 -160 39 -153 59 -279 49 -306 -20
-51 -44 -35 -55 36 -10 69 -24 106 -46 126 -12 11 -34 44 -49 74 -57 113 -141
230 -252 355 -64 71 -75 110 -35 120 12 4 35 1 51 -4 47 -19 56 -14 56 27 0
50 -22 79 -70 93 -33 10 -43 9 -64 -5 -14 -9 -30 -25 -36 -36 -15 -27 -46 -25
-77 6 -20 20 -24 31 -19 57 4 17 17 43 30 57 13 14 31 44 38 68 13 37 13 51 1
95 -24 94 -33 107 -88 132 -44 21 -55 31 -68 67 -22 57 -21 68 4 68 13 0 41
-21 70 -51z m-2881 -58 c0 -11 -4 -31 -10 -45 -8 -22 -16 -26 -49 -26 -60 0
-91 -15 -91 -44 0 -45 -19 -74 -64 -101 -72 -42 -71 -79 2 -103 31 -11 34 -10
44 16 17 39 39 62 59 62 26 0 36 -25 41 -101 4 -51 11 -72 27 -88 12 -12 21
-31 19 -42 -5 -32 -22 -24 -32 15 -11 42 -37 48 -60 14 -22 -32 -20 -75 8
-134 19 -40 46 -135 46 -159 0 -9 -33 -35 -45 -35 -17 0 -81 94 -90 132 -7 27
-39 68 -55 68 -25 0 -40 -34 -40 -89 0 -49 4 -61 26 -82 41 -38 56 -76 49
-118 -4 -26 0 -53 13 -87 11 -27 23 -71 27 -99 4 -27 17 -75 30 -105 12 -30
25 -86 29 -125 l6 -70 -33 -22 c-28 -18 -37 -32 -50 -83 -8 -35 -13 -69 -10
-76 8 -22 43 -16 72 11 14 13 44 42 67 63 37 36 46 39 113 46 71 6 72 6 69
-16 -3 -20 -8 -23 -40 -20 -29 2 -40 -2 -57 -24 -12 -15 -21 -33 -21 -41 0 -8
-25 -38 -56 -67 -56 -52 -57 -53 -63 -125 -7 -70 -17 -90 -47 -91 -6 0 -17 -7
-24 -15 -10 -12 -9 -20 4 -40 18 -28 66 -35 66 -11 0 19 14 28 34 20 23 -9 20
-21 -11 -36 -23 -11 -29 -21 -31 -55 -4 -55 10 -79 50 -86 40 -6 139 33 183
74 37 33 67 49 94 49 31 0 49 25 61 86 13 61 28 74 65 54 26 -14 49 -66 60
-134 4 -22 15 -51 26 -64 40 -51 14 -56 -61 -12 -28 17 -57 30 -64 30 -20 0
-28 -28 -20 -77 7 -49 -3 -67 -50 -87 -22 -9 -35 -24 -45 -52 -21 -61 -26 -64
-106 -64 -84 0 -93 7 -120 88 -17 52 -37 72 -72 72 -28 0 -135 84 -154 122
-10 18 -34 49 -54 68 -20 19 -44 53 -54 76 -11 24 -33 50 -53 62 -56 35 -74
94 -39 126 35 31 35 96 1 96 -21 0 -30 -19 -30 -61 0 -24 -4 -29 -25 -29 -18
0 -29 9 -41 33 -9 17 -32 48 -50 68 -27 27 -37 48 -44 92 -5 31 -7 71 -4 89 2
18 9 103 13 188 7 125 14 170 36 235 14 44 33 111 40 148 10 48 23 78 43 102
19 21 32 49 36 78 4 25 17 61 30 80 13 19 31 58 41 87 12 37 26 57 46 69 20
11 33 29 40 56 6 22 13 46 15 53 2 8 17 19 34 25 16 6 34 23 40 37 6 14 25 34
43 44 18 11 46 32 63 48 32 30 118 77 142 78 6 0 12 -9 12 -19z m487 -713 c-3
-7 -13 -33 -22 -58 -10 -25 -30 -56 -45 -70 -18 -16 -33 -43 -41 -75 -21 -90
-57 -122 -81 -71 -15 34 5 111 41 156 16 20 38 54 49 77 23 45 32 51 76 52 19
1 26 -3 23 -11z m-206 -423 c9 -32 11 -324 2 -401 -2 -28 -9 -57 -14 -65 -19
-29 -29 16 -28 116 0 55 -2 148 -6 207 -5 73 -4 117 5 143 14 41 30 42 41 0z
m681 -212 c11 -10 18 -30 18 -54 0 -32 -5 -41 -30 -54 -33 -17 -92 -20 -120
-5 -39 21 -32 105 11 128 30 16 96 7 121 -15z m488 7 c45 -45 12 -127 -56
-144 -32 -8 -91 33 -100 70 -18 69 103 127 156 74z m472 3 c23 -21 24 -84 1
-112 -26 -31 -72 -36 -111 -11 -41 25 -48 42 -32 81 22 53 103 77 142 42z
m102 -1171 c8 -13 -43 -70 -102 -115 -30 -23 -74 -56 -96 -73 -23 -17 -67 -56
-98 -87 -32 -32 -67 -57 -78 -57 -12 0 -26 -12 -35 -30 -11 -21 -23 -30 -40
-30 -14 0 -35 -12 -50 -27 l-25 -28 -25 30 c-37 46 -28 78 15 55 17 -9 27 -8
48 7 15 10 36 20 47 23 25 7 31 37 12 58 -9 9 -25 39 -36 66 l-21 48 62 -5
c57 -4 66 -2 90 20 14 14 82 54 150 88 115 59 170 76 182 57z m374 -69 c5 -10
12 -49 14 -88 3 -45 13 -86 27 -114 15 -28 31 -97 47 -195 13 -83 33 -182 44
-221 11 -38 24 -108 29 -155 5 -47 21 -116 36 -153 16 -43 31 -114 40 -194 11
-90 21 -135 35 -159 14 -22 20 -46 18 -71 -3 -33 -6 -38 -31 -41 -18 -2 -42 6
-65 21 -21 14 -61 30 -90 36 -29 6 -70 20 -92 31 -22 11 -78 29 -125 40 -47
11 -104 29 -125 40 -22 11 -75 28 -118 36 -42 9 -111 31 -152 49 -41 18 -101
36 -132 40 -41 4 -69 15 -100 37 -37 27 -55 33 -124 38 -62 5 -88 12 -109 28
-19 15 -42 22 -72 22 -84 0 -110 40 -50 79 80 53 103 70 169 126 39 33 93 76
122 96 28 20 95 80 148 132 53 52 106 98 117 102 11 3 30 19 41 36 12 16 28
29 36 29 7 0 26 14 41 31 16 17 45 40 65 50 20 10 49 35 64 55 15 20 53 53 83
74 55 37 89 71 144 143 31 40 51 47 65 20z m-4950 -2294 c10 -18 12 -90 11
-294 -1 -148 -1 -275 0 -281 2 -17 35 -23 57 -11 10 6 27 20 36 32 9 12 36 27
60 34 24 7 60 24 81 39 35 23 50 26 152 30 l114 4 88 -43 c97 -48 167 -103
209 -164 60 -89 58 -67 64 -620 5 -393 3 -516 -6 -536 -24 -50 -38 -54 -163
-51 -172 4 -157 -37 -159 443 -1 217 -6 408 -11 424 -36 114 -58 149 -123 193
-59 41 -66 44 -115 39 -39 -4 -71 -17 -121 -48 -57 -35 -76 -55 -113 -113
l-44 -71 -5 -405 c-5 -415 -8 -439 -46 -454 -8 -3 -66 -6 -128 -6 -101 0 -117
2 -147 23 l-34 23 -1 897 0 897 24 23 c21 20 37 23 145 27 139 6 157 2 175
-31z m-1185 10 c46 -6 79 -17 100 -33 18 -13 48 -27 67 -31 100 -20 390 -224
390 -274 0 -17 -94 -121 -110 -121 -5 0 -17 -13 -26 -30 -18 -29 -76 -60 -114
-60 -10 0 -45 23 -76 50 -31 28 -63 50 -69 50 -7 0 -25 12 -41 27 -28 26 -172
83 -259 103 -86 20 -167 12 -299 -29 -134 -41 -156 -55 -254 -153 -99 -99
-117 -128 -155 -238 -42 -125 -52 -202 -38 -290 15 -86 69 -228 106 -275 55
-68 143 -155 157 -155 8 0 23 -9 34 -21 10 -11 27 -25 38 -31 38 -21 253 -68
306 -68 74 1 304 61 333 87 12 11 36 28 52 36 17 9 59 43 95 76 36 34 67 61
68 61 9 0 68 -49 111 -91 26 -25 54 -50 62 -55 15 -10 69 -85 69 -98 0 -14
-95 -102 -135 -125 -22 -13 -45 -31 -52 -41 -7 -9 -27 -23 -45 -30 -18 -8 -46
-24 -61 -37 -16 -12 -53 -30 -84 -39 -30 -9 -79 -27 -109 -41 -122 -56 -511
-56 -621 1 -28 14 -72 30 -99 37 -27 6 -64 23 -83 37 -19 14 -56 37 -83 50
-26 13 -48 27 -48 32 0 4 -17 19 -39 34 -21 15 -65 61 -97 103 -32 42 -71 90
-85 107 -14 17 -32 49 -39 71 -7 22 -26 65 -41 95 -42 82 -62 280 -48 467 12
168 21 209 58 276 16 29 32 66 36 82 7 30 57 103 128 185 54 62 131 124 199
160 31 16 59 34 62 39 4 5 23 15 44 21 20 7 69 27 108 46 62 30 85 36 185 43
121 10 290 5 402 -10z m4487 -15 c19 -19 21 -34 23 -231 3 -250 4 -253 93
-253 84 0 102 -27 100 -152 -1 -77 -4 -90 -25 -112 -18 -19 -36 -26 -74 -28
-41 -2 -54 -8 -71 -31 -20 -28 -21 -36 -19 -499 1 -258 -2 -481 -7 -494 -14
-35 -66 -57 -152 -62 -101 -6 -164 4 -188 31 -19 20 -20 36 -20 508 0 481 -3
532 -33 551 -7 4 -33 8 -59 8 -67 0 -77 19 -74 137 2 114 15 133 87 133 74 0
79 14 82 264 2 230 3 233 74 246 21 5 84 7 140 6 89 -1 106 -4 123 -22z m1500
-14 c12 -12 20 -34 20 -52 1 -18 0 -344 0 -724 -1 -623 1 -693 15 -708 14 -14
48 -16 245 -16 288 0 268 11 272 -160 1 -69 -2 -131 -6 -138 -4 -7 -22 -20
-39 -29 -28 -14 -74 -16 -402 -14 -208 1 -377 7 -387 12 -10 5 -22 18 -28 29
-12 22 -15 1724 -4 1757 4 10 16 28 27 41 19 21 29 22 144 22 110 0 125 -2
143 -20z m-2829 -459 c30 -15 66 -31 81 -35 15 -3 43 -21 61 -40 43 -42 91
-55 118 -30 10 9 19 23 19 29 0 7 8 23 19 36 18 22 26 24 145 26 123 2 127 1
142 -22 13 -21 15 -100 15 -647 -1 -343 -1 -630 -1 -638 0 -8 -7 -24 -16 -35
-13 -17 -28 -20 -112 -22 -53 -2 -113 -4 -132 -5 -33 -3 -36 0 -60 47 -24 47
-27 50 -63 49 -26 -1 -47 -10 -65 -27 -15 -13 -45 -34 -67 -45 -22 -10 -56
-28 -75 -38 -30 -16 -57 -19 -177 -19 -128 0 -144 2 -170 21 -15 12 -52 28
-80 36 -59 18 -117 61 -220 168 -46 46 -78 89 -86 115 -8 22 -26 57 -40 78
-35 51 -42 101 -42 297 0 176 15 284 45 323 9 12 27 44 38 70 45 101 189 235
290 269 29 9 65 26 80 36 41 29 48 30 178 31 115 1 124 -1 175 -28z m4450 -3
c26 -15 65 -30 88 -34 23 -4 56 -17 74 -30 18 -13 45 -32 62 -41 45 -27 165
-144 182 -178 8 -16 26 -41 39 -55 15 -16 31 -56 44 -106 11 -45 27 -99 37
-120 26 -60 24 -215 -5 -277 -11 -26 -27 -75 -33 -109 -8 -39 -22 -72 -39 -92
-15 -17 -35 -47 -45 -66 -19 -37 -137 -160 -154 -160 -6 0 -27 -15 -47 -32
-35 -31 -76 -50 -214 -100 -47 -17 -74 -19 -200 -16 -130 3 -150 6 -190 27
-25 13 -70 32 -100 42 -30 11 -66 30 -80 43 -14 13 -37 30 -51 37 -15 8 -63
55 -107 106 -60 68 -85 105 -96 142 -8 27 -24 63 -35 78 -29 40 -44 157 -39
294 4 99 9 124 32 175 15 32 34 79 43 104 8 25 25 56 37 70 13 14 33 42 45 63
13 20 27 37 33 37 5 0 26 18 45 40 20 22 42 40 48 40 6 0 32 15 56 33 40 31
125 68 239 103 30 9 85 13 165 11 110 -2 124 -4 166 -29z m1584 0 c22 -14 57
-31 77 -38 21 -6 48 -24 60 -40 13 -16 35 -32 51 -35 24 -6 34 -1 80 47 l52
55 125 -3 c115 -3 126 -5 143 -25 17 -21 18 -59 15 -688 -3 -624 -4 -669 -22
-706 -10 -22 -28 -72 -41 -112 -31 -99 -141 -231 -226 -272 -24 -12 -57 -30
-74 -40 -27 -18 -75 -27 -281 -55 -42 -6 -341 20 -391 33 -22 6 -48 20 -58 31
-10 11 -40 27 -66 34 -34 10 -61 29 -100 70 -135 141 -163 193 -122 238 14 16
33 18 157 18 160 0 190 -6 244 -49 28 -23 56 -34 103 -42 86 -14 219 -13 302
1 57 10 76 19 122 58 51 43 57 53 80 128 31 100 31 100 0 120 -31 20 -59 12
-105 -31 -43 -40 -76 -51 -202 -65 -81 -9 -116 -9 -209 5 -131 19 -129 19
-194 62 -85 55 -135 97 -158 128 -12 17 -30 36 -40 44 -10 7 -27 32 -38 55
-10 22 -28 52 -39 66 -35 43 -62 221 -56 365 6 155 27 269 54 298 11 12 30 43
41 69 34 81 185 215 274 244 28 9 57 21 64 26 33 27 102 38 218 35 110 -2 123
-4 160 -29z m1780 4 c33 -16 83 -34 110 -41 28 -7 70 -27 94 -46 24 -19 49
-35 56 -35 7 0 37 -28 68 -62 31 -35 69 -75 83 -90 14 -15 33 -47 41 -70 8
-24 28 -64 44 -89 25 -40 31 -61 39 -149 15 -179 -9 -369 -49 -394 -5 -4 -17
-28 -26 -55 -9 -27 -25 -57 -36 -67 -11 -10 -29 -34 -41 -53 -19 -34 -63 -75
-165 -155 -23 -18 -63 -39 -88 -45 -26 -6 -70 -24 -98 -39 -50 -26 -57 -27
-217 -27 -159 0 -167 1 -215 26 -28 15 -70 32 -94 39 -25 6 -65 28 -90 48 -74
60 -179 170 -201 210 -12 20 -31 51 -44 69 -15 21 -29 64 -40 125 -41 224 -40
199 -10 356 25 129 31 149 61 184 18 22 33 46 33 54 0 18 159 184 177 184 7 0
30 16 51 35 23 20 56 38 84 44 24 6 71 24 102 41 56 29 63 30 185 30 118 0
130 -2 186 -28z"/>
<path d="M7845 7752 c-76 -30 -147 -72 -192 -116 -29 -28 -53 -56 -53 -63 0
-6 -16 -42 -36 -80 -37 -68 -37 -68 -31 -162 6 -80 12 -104 43 -170 49 -101
97 -147 219 -209 16 -9 63 -17 105 -20 73 -4 78 -3 155 38 95 50 137 88 173
153 15 27 35 63 45 80 15 27 17 51 15 147 -2 79 -8 123 -18 141 -8 15 -26 46
-39 70 -39 72 -81 118 -120 130 -20 6 -55 22 -77 36 -44 25 -151 39 -189 25z"/>
<path d="M12160 7721 c-36 -17 -72 -31 -81 -31 -8 0 -23 -8 -31 -17 -9 -10
-34 -37 -57 -61 -25 -26 -44 -58 -51 -85 -6 -23 -20 -68 -31 -99 -25 -68 -23
-109 14 -232 35 -116 78 -164 197 -223 72 -37 94 -43 147 -43 54 0 73 6 160
50 88 44 103 56 143 112 64 88 69 107 69 243 -1 131 -6 153 -60 235 -53 79
-84 105 -169 140 -110 46 -169 48 -250 11z"/>
<path d="M13830 7729 c-19 -12 -52 -28 -74 -36 -52 -18 -68 -33 -129 -123
l-51 -75 -4 -125 c-3 -106 0 -130 15 -156 61 -105 55 -98 142 -174 66 -56 203
-72 349 -40 85 19 157 89 204 198 33 75 38 97 38 162 0 99 -46 210 -116 281
-27 27 -52 49 -57 49 -5 0 -39 14 -77 30 -87 38 -185 42 -240 9z"/>
<path d="M15585 7740 c-66 -18 -148 -59 -182 -91 -19 -19 -55 -64 -80 -102
-40 -60 -45 -75 -50 -140 -9 -117 4 -220 33 -259 13 -18 39 -53 57 -78 23 -31
57 -58 112 -89 71 -39 89 -45 157 -49 74 -4 80 -3 159 37 98 49 173 122 184
179 4 20 18 63 31 94 30 73 31 133 0 206 -13 31 -27 72 -31 90 -8 39 -107 146
-145 157 -14 4 -51 18 -82 31 -58 24 -109 29 -163 14z"/>
</g>
</svg>
